<?xml version="1.0" encoding="utf-8"?>
<!-- Generator: Adobe Illustrator 27.2.0, SVG Export Plug-In . SVG Version: 6.00 Build 0)  -->
<svg version="1.1" id="Layer_1" xmlns="http://www.w3.org/2000/svg" xmlns:xlink="http://www.w3.org/1999/xlink" x="0px" y="0px"
	 viewBox="0 0 1080 1080" style="enable-background:new 0 0 1080 1080;" xml:space="preserve">
<style type="text/css">
	.st0{fill:#00ACFF;}
	.st1{fill:#FFFFFF;}
	.st2{fill:#EDF4FF;}
</style>
<path class="st0" d="M898.8,1080H181.2C81.1,1080,0,998.9,0,898.8V181.2C0,81.1,81.1,0,181.2,0h717.7C998.9,0,1080,81.1,1080,181.2
	v717.7C1080,998.9,998.9,1080,898.8,1080z"/>
<g>
	<g>
		<path class="st1" d="M756.2,311.7V748c0,54-43.7,97.7-97.7,97.7H376c-54,0-97.7-43.7-97.7-97.7V311.7H756.2z"/>
	</g>
	<ellipse class="st2" cx="517.2" cy="311.7" rx="239" ry="77.3"/>
	<path class="st1" d="M756.2,409.8c-93.3,0-168.9,75.6-168.9,168.9s75.6,168.9,168.9,168.9S925.1,672,925.1,578.7
		S849.5,409.8,756.2,409.8z M756.2,688.5c-60.7,0-109.9-49.2-109.9-109.9c0-60.7,49.2-109.9,109.9-109.9
		c60.7,0,109.9,49.2,109.9,109.9C866.1,639.3,816.9,688.5,756.2,688.5z"/>
</g>
</svg>
