<?xml version="1.0" encoding="utf-8"?>
<!-- Generator: Adobe Illustrator 27.2.0, SVG Export Plug-In . SVG Version: 6.00 Build 0)  -->
<svg version="1.1" id="Layer_1" xmlns="http://www.w3.org/2000/svg" xmlns:xlink="http://www.w3.org/1999/xlink" x="0px" y="0px"
	 viewBox="0 0 100 100" style="enable-background:new 0 0 100 100;" xml:space="preserve">
<style type="text/css">
	.st0{fill:#E33100;}
	.st1{fill:#40E551;}
</style>
<g>
	<path class="st0" d="M88,100H12c-6.6,0-12-5.4-12-12V12C0,5.4,5.4,0,12,0h76c6.6,0,12,5.4,12,12v76C100,94.6,94.6,100,88,100z"/>
</g>
<g>
	<path class="st1" d="M35,48l15,26H26.9c-3.1,0-5-3.3-3.5-6L35,48z"/>
	<path class="st1" d="M65,48H35l11.5-20c1.5-2.7,5.4-2.7,6.9,0L65,48z"/>
	<path class="st1" d="M73.1,74H50l15-26l11.5,20C78.1,70.7,76.2,74,73.1,74z"/>
</g>
</svg>
