<?xml version="1.0" encoding="utf-8"?>
<!-- Generator: Adobe Illustrator 27.2.0, SVG Export Plug-In . SVG Version: 6.00 Build 0)  -->
<svg version="1.1" id="Layer_1" xmlns="http://www.w3.org/2000/svg" xmlns:xlink="http://www.w3.org/1999/xlink" x="0px" y="0px"
	 viewBox="0 0 300 100" style="enable-background:new 0 0 300 100;" xml:space="preserve">
<style type="text/css">
	.st0{fill:url(#SVGID_1_);}
	.st1{fill:#EDF4FF;}
	.st2{fill:#670037;}
	.st3{fill:url(#SVGID_00000034768196937557203580000009943211129496268193_);}
	.st4{fill:#FFFFFF;}
</style>
<linearGradient id="SVGID_1_" gradientUnits="userSpaceOnUse" x1="37.5" y1="50" x2="262.5" y2="50">
	<stop  offset="0" style="stop-color:#00ACFF"/>
	<stop  offset="1" style="stop-color:#1881E0"/>
</linearGradient>
<path class="st0" d="M247.5,95h-195c-8.2,0-15-6.8-15-15V20c0-8.2,6.8-15,15-15h195c8.2,0,15,6.8,15,15v60
	C262.5,88.2,255.8,95,247.5,95z"/>
<g>
	<g>
		<path class="st1" d="M96.1,29.8H53.7V30c0-0.1,0-0.1,0-0.2c0-3.8,9.5-6.8,21.2-6.8S96.1,26,96.1,29.8z"/>
		<ellipse class="st1" cx="74.9" cy="29.8" rx="21.2" ry="6.8"/>
		<ellipse class="st2" cx="74.9" cy="32.5" rx="21.2" ry="6.8"/>
		
			<linearGradient id="SVGID_00000023992973254293222920000009609388856220160702_" gradientUnits="userSpaceOnUse" x1="74.916" y1="39.3844" x2="74.916" y2="25.6854">
			<stop  offset="0" style="stop-color:#670037"/>
			<stop  offset="1" style="stop-color:#4A1337"/>
		</linearGradient>
		
			<ellipse style="fill:url(#SVGID_00000023992973254293222920000009609388856220160702_);" cx="74.9" cy="32.5" rx="21.2" ry="6.8"/>
		<path class="st4" d="M96.1,29.8v38.7c0,4.8-3.9,8.7-8.7,8.7h-25c-4.8,0-8.7-3.9-8.7-8.7V30c0.3,3.7,9.7,6.7,21.2,6.7
			C86.6,36.6,96.1,33.6,96.1,29.8z"/>
		<path class="st4" d="M96.1,38.5c-8.3,0-15,6.7-15,15s6.7,15,15,15s15-6.7,15-15S104.4,38.5,96.1,38.5z M96.1,63.2
			c-5.4,0-9.7-4.4-9.7-9.7c0-5.4,4.4-9.7,9.7-9.7c5.4,0,9.7,4.4,9.7,9.7C105.8,58.8,101.5,63.2,96.1,63.2z"/>
	</g>
</g>
<g>
	<g>
		<path class="st4" d="M133.7,70.7c-0.7,0-1.3-0.2-1.7-0.6c-0.4-0.4-0.6-1-0.6-1.8V30c0-0.8,0.2-1.4,0.6-1.8c0.4-0.4,1-0.6,1.7-0.6
			c0.6,0,1.2,0.1,1.5,0.4c0.4,0.3,0.7,0.7,1.1,1.3l16.5,31h-1.8l16.4-31c0.3-0.6,0.7-1,1-1.3c0.4-0.3,0.9-0.4,1.6-0.4
			c0.7,0,1.2,0.2,1.6,0.6c0.4,0.4,0.6,1,0.6,1.8v38.4c0,0.8-0.2,1.3-0.6,1.8c-0.4,0.4-1,0.6-1.7,0.6c-0.7,0-1.3-0.2-1.7-0.6
			c-0.4-0.4-0.6-1-0.6-1.8V34.6h1.4l-15,28.2c-0.3,0.5-0.6,0.9-0.9,1.1c-0.3,0.2-0.7,0.3-1.3,0.3c-0.6,0-1-0.1-1.3-0.4
			s-0.6-0.6-0.8-1.1l-15.2-28.2h1.4v33.8c0,0.8-0.2,1.3-0.6,1.8C135,70.5,134.4,70.7,133.7,70.7z"/>
		<path class="st4" d="M192.3,70.8c-2.4,0-4.3-0.4-5.9-1.3c-1.5-0.9-2.7-2.2-3.5-3.9c-0.8-1.7-1.2-3.9-1.2-6.4V43.2
			c0-0.8,0.2-1.5,0.6-1.9c0.4-0.4,1-0.6,1.8-0.6c0.8,0,1.4,0.2,1.8,0.6c0.4,0.4,0.6,1,0.6,1.9v16c0,2.6,0.5,4.5,1.6,5.7
			c1.1,1.3,2.7,1.9,5,1.9c2.5,0,4.5-0.8,6.1-2.5c1.6-1.7,2.3-3.9,2.3-6.6V43.2c0-0.8,0.2-1.5,0.6-1.9c0.4-0.4,1-0.6,1.8-0.6
			c0.8,0,1.4,0.2,1.8,0.6c0.4,0.4,0.6,1,0.6,1.9v25c0,1.7-0.8,2.5-2.3,2.5c-0.8,0-1.4-0.2-1.8-0.7c-0.4-0.4-0.6-1.1-0.6-1.9v-5.5
			l0.8,0.8c-0.8,2.4-2.1,4.2-3.9,5.4C196.8,70.2,194.7,70.8,192.3,70.8z"/>
		<path class="st4" d="M228.5,81.7c-2.1,0-4.2-0.3-6.2-0.8s-3.9-1.3-5.5-2.4c-0.5-0.3-0.8-0.6-0.9-1s-0.2-0.8-0.1-1.2
			c0.1-0.4,0.3-0.7,0.5-1c0.3-0.3,0.6-0.5,1-0.6c0.4-0.1,0.8,0,1.2,0.2c1.8,1.1,3.4,1.8,5,2.2c1.6,0.4,3.2,0.6,4.7,0.6
			c2.8,0,5-0.8,6.5-2.3c1.5-1.5,2.2-3.7,2.2-6.6v-6.8h0.6c-0.6,2.3-1.9,4.2-3.8,5.5s-4.2,2-6.8,2c-2.7,0-5-0.6-7-1.8
			c-2-1.2-3.5-2.9-4.5-5.1c-1.1-2.2-1.6-4.7-1.6-7.6c0-2.2,0.3-4.1,0.9-5.9c0.6-1.8,1.5-3.3,2.6-4.6s2.5-2.2,4.1-2.9
			c1.6-0.7,3.4-1.1,5.4-1.1c2.6,0,4.9,0.7,6.8,2c1.9,1.3,3.2,3.2,3.7,5.4l-0.6,0.7v-5.6c0-0.8,0.2-1.4,0.6-1.8
			c0.4-0.4,1-0.6,1.8-0.6c0.8,0,1.4,0.2,1.8,0.6c0.4,0.4,0.6,1,0.6,1.8v25c0,4.4-1.1,7.8-3.3,10.1C236.1,80.5,232.9,81.7,228.5,81.7
			z M227.8,65.7c1.9,0,3.5-0.4,4.9-1.3c1.4-0.9,2.4-2.1,3.2-3.7c0.7-1.6,1.1-3.5,1.1-5.6c0-3.2-0.8-5.8-2.5-7.7
			c-1.6-1.9-3.9-2.9-6.7-2.9c-1.8,0-3.4,0.4-4.8,1.3c-1.4,0.9-2.4,2.1-3.2,3.7c-0.7,1.6-1.1,3.5-1.1,5.6c0,3.2,0.8,5.8,2.5,7.7
			C222.9,64.7,225.1,65.7,227.8,65.7z"/>
	</g>
</g>
</svg>
