<?xml version="1.0" encoding="utf-8"?>
<!-- Generator: Adobe Illustrator 27.2.0, SVG Export Plug-In . SVG Version: 6.00 Build 0)  -->
<svg version="1.1" xmlns="http://www.w3.org/2000/svg" xmlns:xlink="http://www.w3.org/1999/xlink" x="0px" y="0px"
	 viewBox="0 0 500 500" style="enable-background:new 0 0 500 500;" xml:space="preserve">
<style type="text/css">
	.st0{opacity:0.41;fill:#AFAFAF;}
	.st1{fill:none;stroke:#FFFFFF;stroke-width:1.9456;stroke-miterlimit:10;stroke-dasharray:3.8511,3.8511;}
	.st2{opacity:0.87;fill:#515159;}
	.st3{fill:#AFAFAF;}
	.st4{fill:#FEFEFE;}
	.st5{fill:#8B8B8C;}
	.st6{fill:#5A5A63;}
	.st7{fill:#EDB62B;}
	.st8{fill:#2F2F35;}
	.st9{fill:#A87D1D;}
	.st10{fill:#895436;}
	.st11{fill:#515159;}
	.st12{fill:#FFFFFF;}
	.st13{fill:#FF7E6E;}
	.st14{fill:#E8E8E8;}
	.st15{fill:#D3D3D3;}
	.st16{opacity:0.52;fill:#FFF6E7;}
	.st17{opacity:0.28;fill:#4C2A29;}
	.st18{fill:#4C2A29;}
	.st19{fill:#C64F4F;}
	.st20{fill:#803D3D;}
	.st21{fill:none;stroke:#2F2F35;stroke-width:1.3362;stroke-linecap:round;stroke-miterlimit:10;}
	.st22{fill:none;stroke:#2F2F35;stroke-width:2.6723;stroke-linecap:round;stroke-miterlimit:10;}
	.st23{fill:#8C4242;}
	.st24{opacity:0.67;fill:#A87D1D;}
	.st25{fill:none;stroke:#7B3C38;stroke-width:1.139;stroke-miterlimit:10;}
	.st26{fill:#A5A5A5;}
	.st27{opacity:0.57;fill:none;stroke:#FFFFFF;stroke-width:1.1139;stroke-miterlimit:10;}
	.st28{fill:none;stroke:#2F2F35;stroke-width:0.8212;stroke-linecap:round;stroke-miterlimit:10;}
	.st29{fill:none;stroke:#4C2A29;stroke-width:1.3362;stroke-linecap:round;stroke-miterlimit:10;}
	.st30{fill:#ECECEC;}
	.st31{fill:#FFF6E7;}
	.st32{fill:none;stroke:#0F1201;stroke-miterlimit:10;}
	.st33{opacity:0.54;fill:#FFFFFF;}
	.st34{opacity:0.57;fill:none;stroke:#0F1201;stroke-miterlimit:10;}
	.st35{fill:none;stroke:#FEFEFE;stroke-width:2.2387;stroke-linecap:round;stroke-miterlimit:10;}
	.st36{fill:#666666;}
	.st37{fill:#9E9E9E;}
	.st38{opacity:0.68;fill:#2F2F35;}
	.st39{opacity:0.42;fill:#FFFFFF;}
	.st40{fill:#CCCCCC;}
	.st41{opacity:0.75;fill:#FFFFFF;}
	.st42{opacity:0.67;}
	.st43{fill:none;stroke:#666666;stroke-width:2;stroke-miterlimit:10;}
</style>
<g id="BACKGROUND">
</g>
<g id="OBJECTS">
	<g>
		<g>
			<path class="st0" d="M194.6,325.7c-4.1,0-8.1-0.2-12.2-0.5c-44.7-3.7-96.4-25-118.7-63.8c-19.4-34-27.1-77.9-18.2-115.8
				c8.3-35.6,34.1-64.4,70.3-75.4c40.6-12.3,85.5,2.6,125.5-14.2c58.2-24.5,131.3-5,172.1,41.5c36.2,41.3,44.9,107.9,33.6,159.4
				c-5.7,26.1-20.8,51.2-44.9,64.3c-19.1,10.4-42.2,12.5-64.1,9.8c-17.6-2.2-33.8-7.9-50.7-12.6c-13.6-3.8-24.7-1.8-38.5,0.9
				C231,322.9,212.8,325.8,194.6,325.7z"/>
			<path class="st1" d="M204.6,300.8c-3.3,0-6.6-0.1-9.9-0.4c-36.1-3-78-20.2-96-51.7c-15.7-27.5-21.9-63-14.7-93.7
				c6.7-28.8,27.6-52.1,56.9-61c32.9-10,69.2,2.1,101.6-11.5c47.1-19.8,106.3-4.1,139.3,33.6c29.3,33.4,36.3,87.3,27.2,129
				c-4.6,21.1-16.9,41.4-36.3,52c-15.5,8.5-34.2,10.1-51.8,7.9c-14.2-1.8-27.3-6.4-41-10.2c-11-3.1-20-1.5-31.2,0.8
				C234,298.6,219.3,300.9,204.6,300.8z"/>
		</g>
		<g>
			<ellipse class="st2" cx="415.7" cy="438.8" rx="17.6" ry="1.3"/>
			<g>
				<path class="st3" d="M418,388.2c0,0-15.1-10.2-5.4-25.1c9.7-14.9,7.3-20,3.9-24.2c8.2,9.4,6.4,20,1.5,26.8
					C413,372.4,412.3,381.6,418,388.2z"/>
				<g>
					<polygon class="st4" points="430.2,400.9 401.2,400.9 404,437.7 427.4,437.7 					"/>
					<rect x="398.1" y="399" class="st5" width="35.2" height="4.3"/>
					<path class="st6" d="M426.4,395.2H405c-2.1,0-3.8,1.7-3.8,3.8v0h29v0C430.2,396.9,428.5,395.2,426.4,395.2z"/>
					<polygon class="st7" points="428.6,421.9 429.3,413 402.1,413 402.8,421.9 					"/>
				</g>
				<path class="st3" d="M430.2,399L430.2,399c0-2.2-1.7-3.9-3.8-3.9h-10.6c2.1,0,3.8,1.7,3.8,3.8v0h3.1v4.3h-3.3l-2.6,34.3h10.6
					l2.6-34.3h3.3V399H430.2z"/>
			</g>
		</g>
		<g>
			<path class="st8" d="M274.3,170.4c0,0,6.1-19.1-2.8-24.6c-5.7-2.9-8.7,0.7-8.7,0.7s-2.7-13.5-21-9c-11.9,2.9-15.6-3.2-15.6-3.2
				s-0.1,16.9,8.1,22c5.9,5.1,3.6,18.8,3.6,18.8L274.3,170.4z"/>
			<path class="st2" d="M328.3,419.8c0,0,33,1,42.2,9.5c9.7,8.9,19.8,22.9-21.8,22.6c-41.7-0.3-78.6-11.7-113.5-8.1
				c-34.9,3.6-63.6,9.9-72,8.5c-8.4-1.4,51.2-29.9,51.2-29.9l110.6,4.1L328.3,419.8z"/>
			<path class="st9" d="M297.4,345.7l-41.6-4.2l-41.6,4.2c0,0-2.5,19.6-10.5,30.1c52.1,18.7,52.1,18.7,52.1,18.7s0,0,52.1-18.7
				C299.9,365.3,297.4,345.7,297.4,345.7z"/>
			<path class="st9" d="M254.2,393.9c1.6,0.6,1.6,0.6,1.6,0.6s0,0,1.6-0.6c9.6-22,7.3-46.8,6.7-51.6l-8.4-0.8l-10.7,1.1
				C244.9,347.8,244.6,372,254.2,393.9z"/>
			<path class="st10" d="M214,347.3c0,0,43.7,19.3,86,10.9c-1.9-6.9-2.6-12.5-2.6-12.5l-41.6-4.2l-33.4,3.4L214,347.3L214,347.3z"/>
			<path class="st11" d="M234.2,156.2c5.9,5.1,3.6,18.8,3.6,18.8l7.7-1c7.9-7.1,16.9-16,15.6-19.4c-2.3-5.9-8.9-11.8-21-12.5
				c-12.2-0.7-14-7.9-14-7.9S226.1,151.1,234.2,156.2z"/>
			<path class="st12" d="M254.3,204.1L220,216.6l-5.7,129.1c0,0,12.1,5.7,41.6,5.7c0-134.2,0-145.3,0-145.3L254.3,204.1z"/>
			<path class="st12" d="M257.4,204.1l34.4,12.5l5.7,129.1c0,0-12.1,5.7-41.6,5.7c0-134.2,0-145.3,0-145.3L257.4,204.1z"/>
			<path class="st13" d="M220,216.6l-0.2,0.1c-10,3.6-18.1,11.3-22,21.2l-36.9,89.3l31.4,3.7l26.6-65.1L220,216.6z"/>
			<path class="st13" d="M291.7,216.6l0.2,0.1c10,3.6,18.1,11.3,22,21.2l36.9,89.3l-31.4,3.7l-26.6-65.1L291.7,216.6z"/>
			<path class="st14" d="M328.3,272.5l-14.3-34.7c-4-9.9-12-17.6-22-21.2l-0.2-0.1l1.2,49.2l7.5,18.4
				C310.5,275.8,320.5,273.1,328.3,272.5z"/>
			<path class="st14" d="M183.5,272.5l14.3-34.7c4-9.9,12-17.6,22-21.2l0.2-0.1l-1.2,49.2l-7.5,18.4
				C201.3,275.8,191.2,273.1,183.5,272.5z"/>
			<path class="st15" d="M294,267.5c0,0-0.9-1.3-2.2-3.7l1.2,2c0,0-13.1,72.6-48,85.3l0,0c3.4,0.2,7,0.3,11,0.3
				c29.4,0,41.6-5.7,41.6-5.7L294,267.5z"/>
			<path class="st16" d="M203.8,258c8.9-24.9,9.4-24.7,28.7-29.2c19.4-4.6,15.6-22.4,15.6-22.4l-18.1,6.6l-2.8,1l-7.2,2.6l-0.2,0.1
				c-10,3.6-18.1,11.3-22,21.2l-35.4,85.6C177.4,312.4,196.2,279.1,203.8,258z"/>
			<path class="st17" d="M307.9,258c-8.9-24.9-9.4-24.7-28.7-29.2c-19.4-4.6-15.6-22.4-15.6-22.4l18.1,6.6l2.8,1l7.2,2.6l0.2,0.1
				c10,3.6,18.1,11.3,22,21.2l35.4,85.6C334.4,312.4,315.5,279.1,307.9,258z"/>
			<path class="st13" d="M256,220h-0.2c-5.1,0-9.2-4.1-9.2-9.2v-22h18.6v22C265.1,215.9,261,220,256,220z"/>
			<path class="st18" d="M265,205.8c0.1,0,0.1,0,0.1,0v-16.9h-8.7l-9.9,3.6C246.6,192.4,250.3,205.8,265,205.8z"/>
			<path class="st19" d="M277.5,175.6c0,3.3-2.7,6-6,6c-3.3,0-6-2.7-6-6c0-3.3,2.7-6,6-6C274.8,169.7,277.5,172.3,277.5,175.6z"/>
			<path class="st20" d="M272.7,181.5c0.9-3.5,1.4-7.9,1.6-11.1c-0.8-0.5-1.8-0.7-2.8-0.7c-3.3,0-6,2.7-6,6c0,3.3,2.7,6,6,6
				C271.9,181.6,272.3,181.5,272.7,181.5z"/>
			<path class="st19" d="M234.2,175.6c0,3.3,2.7,6,6,6c3.3,0,6-2.7,6-6c0-3.3-2.7-6-6-6C236.9,169.7,234.2,172.3,234.2,175.6z"/>
			<path class="st20" d="M239,181.5c-0.9-3.5-1.4-7.9-1.6-11.1c0.8-0.5,1.8-0.7,2.8-0.7c3.3,0,6,2.7,6,6c0,3.3-2.7,6-6,6
				C239.8,181.6,239.4,181.5,239,181.5z"/>
			<path class="st13" d="M266.4,154.8h-10.5h-10.5l-5.2,11.4l0.9,11.2c0.5,6,4.3,16.4,9.8,18.9c1.6,0.8,3.3,1.3,5,1.3
				c1.7,0,3.4-0.5,5-1.3c5.5-2.5,9.3-12.9,9.8-18.9l0.9-11.2L266.4,154.8z"/>
			<path class="st21" d="M261.2,169c0,0,3.5,1,7.5,0"/>
			<path class="st22" d="M260.1,162.6c0,0,5.1-0.9,8.2,0.9"/>
			<path class="st21" d="M250.5,169c0,0-3.5,1-7.5,0"/>
			<path class="st22" d="M251.6,162.6c0,0-5.1-0.9-8.2,0.9"/>
			<path class="st16" d="M247.5,178.8c-0.7-11.4-2.1-24.1-2.1-24.1l-5.2,11.4l0.3,3.6c-0.1,0-0.1,0-0.2,0c-3.3,0-6,2.7-6,6
				c0,3.3,2.7,6,6,6c0.5,0,1-0.1,1.5-0.2c1.4,5.8,4.8,12.8,9.1,14.9c1.6,0.8,3.3,1.3,5,1.3C255.9,197.5,248.2,190.2,247.5,178.8z"/>
			<g>
				<path class="st23" d="M291.7,396.2l-118.8-36c-15.8-4.8-32.4,4.5-36.5,20.4l-0.2,0.6c-4.3,16.4,6.4,33,23.1,35.9
					c43.9,7.7,123.5,20.7,165.4,22.3l17.7,11.8c2.7,1.8,6.2,1.5,8.5-0.7l0.1-0.1c2.8-2.6,2.9-7,0.3-9.7l-2.8-2.9
					c0,0-2.5-12-14.6-17.1c-12.1-5.1-13.3-17.7-16.1-24.5C315.1,389.3,296.9,385.9,291.7,396.2z"/>
				<path class="st7" d="M136.4,380.6c4.2-15.9,20.8-25.2,36.5-20.4l40.3,12.2c-6.1,7.6-14.1,22.9-14.3,51.4
					c-14.7-2.4-28.3-4.7-39.6-6.7c-16.7-2.9-27.4-19.5-23.1-35.9L136.4,380.6z"/>
				<path class="st24" d="M173.9,405.6c0,4.8-1.2,9.4-3.2,13.5c-4-0.7-7.8-1.3-11.3-2c-16.7-2.9-27.4-19.5-23.1-35.9l0.2-0.6
					c0.4-1.4,0.9-2.8,1.4-4.1c2-0.4,4.1-0.7,6.2-0.7C160.6,375.8,173.9,389.1,173.9,405.6z"/>
				<path class="st25" d="M297.4,412.7c0,0-1.7,10-18.2,6.4"/>
				<path class="st17" d="M307.9,408.1c0,0-25.3-1.1-78.8-10.7c-43.4-7.7-56.1-29.9-59.4-38.1c1.1,0.2,2.2,0.5,3.2,0.8l118.8,36
					c5.1-10.3,23.3-6.8,26.2,0c2.8,6.8,4,19.4,16.1,24.5c12.1,5.1,14.6,17.1,14.6,17.1s-12.5-8-20.3-9.7S307.9,408.1,307.9,408.1z"
					/>
			</g>
			<path class="st8" d="M313.4,438.8c0,0,21.8,20.9,40.4,12.3c3.1-1.4,4.1-5.4,2-8.1c-15.7-21.3-35.4-44.4-42.9-53.2
				c-1.9-2.2-4.9-3.1-7.6-2.3l-21.4,6.2L313.4,438.8z"/>
			<polygon class="st26" points="283.9,393.8 263.3,387.5 278.9,435.4 313.4,438.8 			"/>
			<path class="st13" d="M220,396.2l118.8-36c15.8-4.8,32.4,4.5,36.5,20.4l0.2,0.6c4.3,16.4-6.4,33-23.1,35.9
				c-43.9,7.7-123.5,20.7-165.4,22.3l-17.7,11.8c-2.7,1.8-6.2,1.5-8.5-0.7l-0.1-0.1c-2.8-2.6-2.9-7-0.3-9.7l2.8-2.9
				c0,0,2.5-12,14.6-17.1c12.1-5.1,13.3-17.7,16.1-24.5C196.6,389.3,214.9,385.9,220,396.2z"/>
			<path class="st7" d="M375.3,380.6c-4.2-15.9-20.8-25.2-36.5-20.4l-40.3,12.2c6.1,7.6,14.1,22.9,14.3,51.4
				c14.7-2.4,28.3-4.7,39.6-6.7c16.7-2.9,27.4-19.5,23.1-35.9L375.3,380.6z"/>
			<path class="st24" d="M337.8,405.6c0,4.8,1.2,9.4,3.2,13.5c4-0.7,7.8-1.3,11.3-2c16.7-2.9,27.4-19.5,23.1-35.9l-0.2-0.6
				c-0.4-1.4-0.9-2.8-1.4-4.1c-2-0.4-4.1-0.7-6.2-0.7C351.2,375.8,337.8,389.1,337.8,405.6z"/>
			<path class="st17" d="M203.8,408.1c0,0,25.3-1.1,78.8-10.7c43.4-7.7,56.1-29.9,59.4-38.1c-1.1,0.2-2.2,0.5-3.2,0.8l-118.8,36
				c-5.1-10.3-23.3-6.8-26.2,0c-2.8,6.8-4,19.4-16.1,24.5c-12.1,5.1-14.6,17.1-14.6,17.1s12.5-8,20.3-9.7
				C191.3,426.3,203.8,408.1,203.8,408.1z"/>
			<path class="st27" d="M177.7,420.6l-17.8-3.3c-16.1-2.6-27-17.8-24.3-33.9l0.1-0.6c3-17.5,20.8-28.4,37.8-23l33.6,10.7"/>
			<path class="st12" d="M249.8,178.6c-0.6,0-1,0.7-0.6,1.2c1.8,2.3,4.1,3.7,6.7,3.7c2.6,0,5-1.4,6.7-3.7c0.4-0.5,0-1.2-0.6-1.2
				H249.8z"/>
			<path class="st28" d="M257.6,168.8v6.2c0,0-1.4-0.8-3.4,0"/>
			<rect x="261.2" y="146.5" class="st13" width="1.5" height="9.7"/>
			<g>
				<path class="st13" d="M350.8,327.1l0.1,0.2c3.6,9.9-0.7,20.8-10,25.7l-63.4,33.2l-0.3-0.8c-5.6-14.4,0.3-30.8,13.7-38.4
					l28.6-16.2L350.8,327.1z"/>
				<path class="st17" d="M337.4,347.5c0,2.3,0.6,4.5,1.6,6.5l1.9-1c7.3-3.8,11.5-11.5,11.2-19.4c-0.3,0-0.5,0-0.8,0
					C343.7,333.6,337.4,339.8,337.4,347.5z"/>
				<line class="st29" x1="319.5" y1="330.9" x2="337.4" y2="320.7"/>
			</g>
			<g>
				<path class="st13" d="M161.1,327.1l-0.1,0.2c-3.6,9.9,0.7,20.8,10,25.7l63.4,33.2l0.3-0.8c5.6-14.4-0.3-30.8-13.7-38.4
					l-28.6-16.2L161.1,327.1z"/>
				<path class="st17" d="M174.5,347.5c0,2.3-0.6,4.5-1.6,6.5l-1.9-1c-7.3-3.8-11.5-11.5-11.2-19.4c0.3,0,0.5,0,0.8,0
					C168.3,333.6,174.5,339.8,174.5,347.5z"/>
				<line class="st29" x1="192.5" y1="330.9" x2="174.5" y2="320.7"/>
			</g>
			<path class="st29" d="M227.4,382.5c0,0,3.2-17.6-7.2-23.2"/>
			<path class="st29" d="M284.3,382.5c0,0-3.2-17.6,7.2-23.2"/>
			<path class="st8" d="M198.3,438.8c0,0-21.8,20.9-40.4,12.3c-3.1-1.4-4.1-5.4-2-8.1c15.7-21.3,35.4-44.4,42.9-53.2
				c1.9-2.2,4.9-3.1,7.6-2.3l21.4,6.2L198.3,438.8z"/>
			<polygon class="st30" points="227.9,393.8 248.4,387.5 232.8,435.4 198.3,438.8 			"/>
			<path class="st17" d="M219.3,406.8c6.1-0.6,14-1.6,23.8-3l5.3-16.2l-20.5,6.2L219.3,406.8z"/>
			<path class="st31" d="M204.8,424.3l-11.9,18.1c-0.7,1.1-2.1,1.7-3.4,1.6l-0.1,0c-2.6-0.4-3.9-3.3-2.4-5.4l12.2-18
				c0.8-1.1,2.2-1.7,3.5-1.4l0.1,0C205.1,419.7,206.1,422.3,204.8,424.3z"/>
			<g>
				<g>
					<polygon class="st3" points="254.2,319.4 181.4,319.4 199.3,383.4 254.2,383.4 309.1,383.4 327.1,319.4 					"/>
					<rect x="199.3" y="383.4" class="st5" width="109.8" height="9.3"/>
					<ellipse class="st6" cx="254.3" cy="356.5" rx="17.8" ry="9.1"/>
					<rect x="181.4" y="315.2" class="st6" width="145.7" height="4.2"/>
					<rect x="205.4" y="386.1" class="st6" width="11" height="3.7"/>
					<rect x="221.3" y="386.1" class="st6" width="11" height="3.7"/>
					<line class="st32" x1="309.1" y1="388.1" x2="242.3" y2="388.1"/>
					<path class="st33" d="M181.4,319.4l18,64h39.1c23.2-26.9,37.3-64,37.3-64l0-4.2h-94.3V319.4z"/>
				</g>
				<line class="st34" x1="181.4" y1="319.4" x2="327.1" y2="319.4"/>
			</g>
		</g>
		<g>
			<ellipse class="st2" cx="105.7" cy="438.8" rx="26.4" ry="1.3"/>
			<g>
				<g>
					<path class="st6" d="M109.6,425.6l1.7-1.9l-0.9,0.9l0.9-0.9c-0.2-0.2-21.1-21.3,4.1-116.6l-2.5-0.7
						C87.3,403.8,108.7,424.8,109.6,425.6z"/>
					<g>
						<path class="st6" d="M101.8,308.8c9.5,8.7,7.9,18.9,7.9,18.9s-9.5-4.1-11.8-16.8C97.5,308.8,100.1,307.3,101.8,308.8z"/>
						<path class="st6" d="M125.7,315c-12.5,3-16,12.8-16,12.8s10.3,1,18.4-9C129.5,317,127.9,314.4,125.7,315z"/>
					</g>
					<g>
						<path class="st6" d="M95.3,333.8c10.4,7.7,9.7,18,9.7,18s-9.9-3.1-13.4-15.5C91,334.1,93.5,332.4,95.3,333.8z"/>
						<path class="st6" d="M119.6,337.4c-12.2,4.3-14.6,14.3-14.6,14.3s10.4,0,17.4-10.8C123.6,339,121.8,336.7,119.6,337.4z"/>
					</g>
					<g>
						<path class="st6" d="M91.1,355.6c10.9,6.9,11,17.3,11,17.3s-10.1-2.4-14.5-14.5C86.9,356.3,89.2,354.4,91.1,355.6z"/>
						<path class="st6" d="M115.7,357.5c-11.8,5.1-13.5,15.4-13.5,15.4s10.4-0.8,16.5-12.1C119.8,358.8,117.8,356.6,115.7,357.5z"/>
					</g>
					<path class="st6" d="M122.2,289.8c0.2,12.9-8.4,18.7-8.4,18.7s-3.6-9.7,4.2-20.1C119.4,286.6,122.2,287.5,122.2,289.8z"/>
				</g>
				<rect x="90.9" y="383.4" class="st7" width="27.7" height="54.8"/>
				<rect x="107.5" y="383.4" class="st24" width="11.1" height="54.8"/>
			</g>
		</g>
		<g>
			<g>
				<path class="st9" d="M130.7,122.2l-10,2.5c-1.4,0.4-2.9-0.5-3.3-2l-1-3.9l15.2-3.8l1,3.9C133,120.4,132.2,121.8,130.7,122.2z"/>
				<path class="st9" d="M167.7,110.3l-86.1,21.4c-1.5,0.4-3-0.5-3.4-2L64.1,72.6c-0.4-1.5,0.5-3,2-3.4l86.1-21.4
					c1.5-0.4,3,0.5,3.4,2l14.2,57.1C170.1,108.4,169.2,109.9,167.7,110.3z"/>
				<polygon class="st7" points="165.2,100.4 162.8,107.3 86.4,126.3 79.6,121.7 65.6,65.2 151.1,43.9 				"/>
				
					<rect x="72" y="59.1" transform="matrix(0.9704 -0.2413 0.2413 0.9704 -18.536 25.1642)" class="st12" width="42.9" height="58.3"/>
				
					<rect x="70.2" y="63.9" transform="matrix(0.9704 -0.2413 0.2413 0.9704 -13.0622 23.1109)" class="st3" width="35.3" height="2"/>
				
					<rect x="71.7" y="70.2" transform="matrix(0.9704 -0.2414 0.2414 0.9704 -14.5429 23.678)" class="st3" width="35.3" height="2"/>
				
					<rect x="73.3" y="76.5" transform="matrix(0.9704 -0.2413 0.2413 0.9704 -16.0233 24.2446)" class="st3" width="35.3" height="2"/>
				
					<rect x="74.9" y="82.8" transform="matrix(0.9704 -0.2413 0.2413 0.9704 -17.5039 24.8114)" class="st3" width="35.3" height="2"/>
				
					<rect x="76.5" y="89.2" transform="matrix(0.9704 -0.2414 0.2414 0.9704 -18.9847 25.3785)" class="st3" width="35.3" height="2"/>
				
					<rect x="78" y="95.5" transform="matrix(0.9704 -0.2413 0.2413 0.9704 -20.4651 25.9451)" class="st3" width="35.3" height="2"/>
				
					<rect x="79.6" y="101.8" transform="matrix(0.9704 -0.2413 0.2413 0.9704 -21.9456 26.5119)" class="st3" width="35.3" height="2"/>
				
					<rect x="81.2" y="108.1" transform="matrix(0.9704 -0.2414 0.2414 0.9704 -23.4265 27.0792)" class="st3" width="35.3" height="2"/>
				
					<rect x="115.9" y="48.2" transform="matrix(0.9704 -0.2414 0.2414 0.9704 -14.6061 35.4294)" class="st12" width="42.9" height="58.3"/>
				
					<rect x="113.7" y="53" transform="matrix(0.9704 -0.2414 0.2414 0.9704 -9.1606 33.3023)" class="st3" width="35.3" height="2"/>
				
					<rect x="115.3" y="59.4" transform="matrix(0.9704 -0.2413 0.2413 0.9704 -10.6411 33.8688)" class="st3" width="35.3" height="2"/>
				
					<rect x="116.9" y="65.7" transform="matrix(0.9704 -0.2413 0.2413 0.9704 -12.1217 34.4356)" class="st3" width="35.3" height="2"/>
				
					<rect x="118.4" y="72" transform="matrix(0.9704 -0.2414 0.2414 0.9704 -13.6024 35.0029)" class="st3" width="35.3" height="2"/>
				
					<rect x="120" y="78.3" transform="matrix(0.9704 -0.2413 0.2413 0.9704 -15.0829 35.5694)" class="st3" width="35.3" height="2"/>
				
					<rect x="121.6" y="84.7" transform="matrix(0.9704 -0.2413 0.2413 0.9704 -16.5634 36.1361)" class="st3" width="35.3" height="2"/>
				
					<rect x="123.2" y="91" transform="matrix(0.9704 -0.2414 0.2414 0.9704 -18.0442 36.7034)" class="st3" width="35.3" height="2"/>
				
					<rect x="124.7" y="97.3" transform="matrix(0.9704 -0.2413 0.2413 0.9704 -19.5246 37.2698)" class="st3" width="35.3" height="2"/>
				<path class="st7" d="M128.1,118.9l-6.6,1.6c-1.4,0.4-2.9-0.5-3.3-2l-0.6-2.4l11.8-2.9l0.6,2.4
					C130.4,117,129.6,118.5,128.1,118.9z"/>
			</g>
			<g>
				<path class="st7" d="M274.5,37.6c-3.4-3.3-7.7-5.5-12.2-7c0,0-0.1,0-0.2-0.1c-4-1.1-8.3-1.1-12.3,0c-0.1,0-0.2,0-0.2,0.1
					c-4.4,1.5-8.8,3.7-12.2,7c-10.2,9.7-8.5,27.2,1.4,36.5c2.8,2.6,4,6,4.9,9.7c0.3,1.1,1.7,12.7,1.2,12.7c5,0,11.1,0,11.1,0
					s6.1,0,11.1,0c-0.5,0,1-11.6,1.2-12.7c0.9-3.7,2.1-7.1,4.9-9.7C283,64.8,284.6,47.2,274.5,37.6z"/>
				<path class="st16" d="M251.9,83.7c-0.9-3.7-2.1-7.1-4.9-9.7c-9.9-9.3-11.6-26.8-1.4-36.5c3.4-3.3,7.7-5.5,12.2-7
					c0,0,0.1,0,0.2-0.1c0.7-0.2,1.3-0.3,2-0.4c-3.4-0.6-6.9-0.5-10.3,0.4c-0.1,0-0.2,0-0.2,0.1c-4.4,1.5-8.8,3.7-12.2,7
					c-10.2,9.7-8.5,27.2,1.4,36.5c2.8,2.6,4,6,4.9,9.7c0.3,1.1,1.7,12.7,1.2,12.7c2.9,0,6.1,0,8.3,0
					C253.7,96.5,252.2,84.8,251.9,83.7z"/>
				<path class="st35" d="M255.9,96.5V69.4l4.8-2.8c1.6-0.9,1.3-3.3-0.5-3.7l-8.7-2.3c-1.5-0.4-1.6-2.4-0.3-3.1l4.7-2.1v-9.2"/>
				<path class="st8" d="M269.2,100.2c0,0.8-0.7,1.5-1.5,1.5h-24.4c-0.8,0-1.5-0.7-1.5-1.5l0,0c0-0.8,0.7-1.5,1.5-1.5h24.4
					C268.5,98.7,269.2,99.4,269.2,100.2L269.2,100.2z"/>
				<path class="st8" d="M269.2,104.7c0,0.8-0.7,1.5-1.5,1.5h-24.4c-0.8,0-1.5-0.7-1.5-1.5l0,0c0-0.8,0.7-1.5,1.5-1.5h24.4
					C268.5,103.2,269.2,103.9,269.2,104.7L269.2,104.7z"/>
				<path class="st8" d="M269.2,109.2c0,0.8-0.7,1.5-1.5,1.5h-24.4c-0.8,0-1.5-0.7-1.5-1.5l0,0c0-0.8,0.7-1.5,1.5-1.5h24.4
					C268.5,107.7,269.2,108.3,269.2,109.2L269.2,109.2z"/>
				<path class="st8" d="M255.5,121.1c4.8,0,8.7-3.9,8.7-8.7h-17.4C246.8,117.2,250.7,121.1,255.5,121.1z"/>
			</g>
			<g>
				<path class="st36" d="M358.7,126.8v-7h-3.1c-0.6-3.3-1.9-6.4-3.9-9l2.5-2.5l-5-5l-2.5,2.5c-2.6-1.8-5.6-3-8.9-3.4v-3.7h-7v3.8
					c-3.1,0.6-6,1.9-8.5,3.7l-2.5-2.5l-5,5l2.5,2.5c-1.8,2.6-3.1,5.7-3.6,8.9h-3.5v7h3.6c0.6,3.2,1.9,6.2,3.7,8.7l-2.7,2.7l5,5
					l2.8-2.8c2.5,1.8,5.5,3,8.7,3.5v3.8h7v-3.8c3.2-0.5,6.1-1.8,8.7-3.5l2.3,2.3l5-5l-2.3-2.3c1.9-2.7,3.3-5.8,3.8-9.2H358.7z
					 M334.7,135.4c-6.6,0-11.9-5.3-11.9-11.9c0-6.6,5.3-11.9,11.9-11.9c6.6,0,11.9,5.3,11.9,11.9
					C346.6,130.1,341.3,135.4,334.7,135.4z"/>
				<path class="st37" d="M386.6,153.4v-4h-1.8c-0.3-1.9-1.1-3.7-2.2-5.2l1.4-1.4l-2.9-2.9l-1.5,1.5c-1.5-1-3.3-1.7-5.1-2v-2.1h-4
					v2.2c-1.8,0.3-3.5,1.1-4.9,2.1l-1.4-1.4l-2.9,2.9l1.4,1.4c-1.1,1.5-1.8,3.3-2.1,5.2h-2v4h2.1c0.3,1.9,1.1,3.6,2.1,5l-1.6,1.6
					l2.9,2.9l1.6-1.6c1.5,1,3.2,1.7,5,2v2.2h4v-2.2c1.8-0.3,3.5-1,5-2l1.3,1.3l2.9-2.9l-1.3-1.3c1.1-1.5,1.9-3.3,2.2-5.3H386.6z
					 M372.8,158.4c-3.8,0-6.9-3.1-6.9-6.9c0-3.8,3.1-6.9,6.9-6.9s6.9,3.1,6.9,6.9C379.6,155.3,376.6,158.4,372.8,158.4z"/>
				<g>
					<path class="st5" d="M450.3,101V86.6H444c-1.2-6.8-4-13.1-8-18.5l5-5L430.8,53l-5.2,5.2c-5.4-3.7-11.6-6.1-18.3-7.1v-7.5h-14.4
						v7.8c-6.4,1.2-12.3,3.8-17.5,7.5l-5.1-5.1L360.2,64l5.2,5.2c-3.8,5.4-6.3,11.6-7.4,18.4h-7.1V102h7.3
						c1.2,6.6,3.8,12.7,7.6,17.9l-5.6,5.6l10.2,10.2l5.7-5.7c5.2,3.7,11.3,6.2,17.8,7.3v7.8h14.4v-7.8c6.5-1.1,12.6-3.6,17.8-7.2
						l4.8,4.8l10.2-10.2l-4.7-4.7c4-5.5,6.7-11.9,7.8-18.9H450.3z M401,118.7c-13.5,0-24.5-11-24.5-24.5c0-13.5,11-24.5,24.5-24.5
						c13.5,0,24.5,11,24.5,24.5C425.5,107.8,414.6,118.7,401,118.7z"/>
					<circle class="st36" cx="400.6" cy="94.3" r="14.4"/>
				</g>
			</g>
			<g>
				<path class="st6" d="M120.7,167.8c-30.9,1.9-54.9,20.4-53.6,41.3c1.3,20.9,27.3,36.4,58.2,34.5c0,0,0,0,0.1,0
					c3-0.2,5.2-3.1,4.4-6.1c-0.4-1.4-0.6-2.9-0.6-4.5c-0.2-10,7.6-18.6,17.5-19.5c7.2-0.7,13.8,2.7,17.6,8.3
					c1.9,2.7,5.9,2.9,7.9,0.3c4.6-6,7.1-12.8,6.7-19.9C177.6,181.4,151.6,165.9,120.7,167.8z"/>
				<g>
					<path class="st5" d="M120.5,164.4c-30.9,1.9-54.9,20.4-53.6,41.3c1.3,20.9,27.3,36.4,58.2,34.5c0,0,0,0,0.1,0
						c3-0.2,5.2-3.1,4.4-6.1c-0.4-1.4-0.6-2.9-0.6-4.5c-0.2-10,7.6-18.6,17.5-19.5c7.2-0.7,13.8,2.7,17.6,8.3
						c1.9,2.7,5.9,2.9,7.9,0.3c4.6-6,7.1-12.8,6.7-19.9C177.4,178,151.4,162.5,120.5,164.4z"/>
					<path class="st7" d="M109.6,223.8c0.2,3.7-2.6,6.9-6.3,7.1c-3.7,0.2-6.9-2.6-7.1-6.3c-0.2-3.7,2.6-6.9,6.3-7.1
						C106.2,217.2,109.4,220.1,109.6,223.8z"/>
					<path class="st7" d="M91.2,211c0.2,3.7-2.6,6.9-6.3,7.1c-3.7,0.2-6.9-2.6-7.1-6.3s2.6-6.9,6.3-7.1
						C87.8,204.5,91,207.3,91.2,211z"/>
					<path class="st7" d="M96.6,188.7c0.2,3.7-2.6,6.9-6.3,7.1c-3.7,0.2-6.9-2.6-7.1-6.3s2.6-6.9,6.3-7.1
						C93.2,182.1,96.4,185,96.6,188.7z"/>
					<path class="st7" d="M119.4,176.6c0.2,3.7-2.6,6.9-6.3,7.1c-3.7,0.2-6.9-2.6-7.1-6.3c-0.2-3.7,2.6-6.9,6.3-7.1
						C116,170,119.2,172.9,119.4,176.6z"/>
					<path class="st7" d="M145.1,176.9c0.2,3.7-2.6,6.9-6.3,7.1s-6.9-2.6-7.1-6.3c-0.2-3.7,2.6-6.9,6.3-7.1
						C141.7,170.4,144.9,173.2,145.1,176.9z"/>
					<path class="st7" d="M166.8,189.1c0.2,3.7-2.6,6.9-6.3,7.1c-3.7,0.2-6.9-2.6-7.1-6.3c-0.2-3.7,2.6-6.9,6.3-7.1
						C163.3,182.6,166.5,185.4,166.8,189.1z"/>
				</g>
				<path class="st38" d="M150.6,168.4l-6.4,13.3c-0.8,0-1.6,0.4-2,1.3l0,0c-0.4,1,0.1,2.2,1.1,2.7l0.6,0.2c-0.1,0-0.7-0.1-2,1.8v0
					c0,0,0,0,0,0c-0.1,0.1-0.2,0.2-0.2,0.4c0,0,0,0,0,0c-0.1,0.1-0.2,0.2-0.2,0.4c0,0,0,0.1,0,0.1c-0.1,0.1-0.2,0.3-0.2,0.4
					c0,0,0,0.1-0.1,0.1c-0.1,0.1-0.2,0.3-0.2,0.4c0,0.1-0.1,0.1-0.1,0.2c-0.1,0.1-0.2,0.3-0.2,0.4c0,0.1-0.1,0.1-0.1,0.2
					c-0.1,0.1-0.1,0.3-0.2,0.4c0,0.1-0.1,0.2-0.1,0.3c-0.1,0.1-0.1,0.3-0.2,0.5c-0.1,0.1-0.1,0.2-0.2,0.3c-0.1,0.2-0.1,0.3-0.2,0.5
					c-0.1,0.1-0.1,0.3-0.2,0.4c-0.1,0.2-0.2,0.3-0.2,0.5c-0.1,0.1-0.1,0.3-0.2,0.5c-0.1,0.2-0.1,0.3-0.2,0.5
					c-0.1,0.2-0.1,0.3-0.2,0.5c-0.1,0.2-0.1,0.3-0.2,0.5c-0.1,0.2-0.2,0.4-0.2,0.6c-0.1,0.2-0.1,0.4-0.2,0.5
					c-0.1,0.2-0.2,0.5-0.3,0.7c-0.1,0.2-0.1,0.4-0.2,0.6c-0.1,0.3-0.2,0.5-0.3,0.8c-0.1,0.2-0.1,0.3-0.2,0.5c-0.1,0.3-0.2,0.7-0.4,1
					c-0.1,0.1-0.1,0.3-0.2,0.4c-0.2,0.5-0.4,1-0.6,1.5c-0.5,1.4-1.1,3.1-1.8,4.9c-0.1,0.2-0.2,0.4-0.2,0.6c-0.1,0.3-0.2,0.6-0.3,0.9
					c-0.1,0.2-0.2,0.5-0.3,0.7c-0.1,0.4-0.3,0.8-0.4,1.2c-0.1,0.2-0.1,0.3-0.2,0.5c-0.1,0.4-0.3,0.8-0.4,1.2
					c-0.1,0.2-0.1,0.4-0.2,0.6c-0.1,0.4-0.3,0.8-0.4,1.1c-0.1,0.2-0.2,0.5-0.2,0.7c-0.2,0.4-0.3,0.9-0.5,1.3
					c-0.1,0.2-0.1,0.3-0.2,0.5c-0.2,0.5-0.3,0.9-0.5,1.4c-0.1,0.2-0.1,0.4-0.2,0.6c-0.2,0.4-0.3,0.9-0.5,1.3
					c-0.1,0.2-0.2,0.5-0.2,0.7c-0.2,0.5-0.3,0.9-0.5,1.4c-0.1,0.2-0.1,0.4-0.2,0.6c-0.2,0.5-0.3,0.9-0.5,1.4
					c-0.1,0.2-0.2,0.5-0.2,0.7c-0.1,0.4-0.3,0.9-0.4,1.3c-0.1,0.3-0.2,0.6-0.3,0.9c-0.1,0.4-0.3,0.7-0.4,1.1
					c-0.1,0.4-0.2,0.7-0.4,1.1c-0.1,0.4-0.3,0.8-0.4,1.2c-0.1,0.2-0.1,0.4-0.2,0.6l0,0h0c-1.1,3.3-2.3,6.6-3.4,9.8c1,0,2-0.1,3-0.1
					c0,0,0,0,0.1,0c3-0.2,5.2-3.1,4.4-6.1c-0.4-1.4-0.6-2.9-0.6-4.5c-0.1-8.7,5.8-16.4,13.9-18.8c0.9-1.9,1.7-3.7,2.4-5.2
					c7.2-15.7,5.4-17.1,5.2-17.2l0.6,0.2c1,0.4,2.2-0.1,2.7-1.1l0,0c0.4-1,0-2.1-0.9-2.6l4.8-13.7
					C155.3,170.3,153,169.3,150.6,168.4z M143.9,185.9L143.9,185.9l0.2,0.1L143.9,185.9z"/>
				<path class="st39" d="M95.5,187.6c0.1,1.6-1.1,2.9-2.6,3c-1.6,0.1-2.9-1.1-3-2.6c-0.1-1.6,1.1-2.9,2.6-3
					C94,184.9,95.4,186.1,95.5,187.6z"/>
				<path class="st39" d="M118.3,175.8c0.1,1.6-1.1,2.9-2.6,3c-1.6,0.1-2.9-1.1-3-2.6c-0.1-1.6,1.1-2.9,2.6-3
					C116.8,173.1,118.2,174.2,118.3,175.8z"/>
				<path class="st39" d="M142.4,175.2c0.1,1.6-1.1,2.9-2.6,3c-1.6,0.1-2.9-1.1-3-2.6c-0.1-1.6,1.1-2.9,2.6-3
					C141,172.5,142.3,173.6,142.4,175.2z"/>
				<path class="st39" d="M88.4,209c0.1,1.6-1.1,2.9-2.6,3c-1.6,0.1-2.9-1.1-3-2.6s1.1-2.9,2.6-3C86.9,206.3,88.3,207.5,88.4,209z"
					/>
				<path class="st39" d="M108.4,221.8c0.1,1.6-1.1,2.9-2.6,3c-1.6,0.1-2.9-1.1-3-2.6c-0.1-1.6,1.1-2.9,2.6-3
					C106.9,219.1,108.3,220.3,108.4,221.8z"/>
				<g>
					<path class="st7" d="M175.2,164.4c0,0,9.2-5,9.8-12.8c0-4.6-2-8.4-2-8.4l-1.3,4.7c0,0-0.7-7.4-6-11c-5.3-3.6-4-2.6-4-2.6
						s4.5,5.9-0.5,15.7c-5,9.8,1.3,13.2,1.3,13.2L175.2,164.4z"/>
					<path class="st9" d="M174.7,161.2c0,0-1.7-8.5,2.1-13.1c-4.9,6.3-6,11.3-4.7,15.4C174.7,161.2,174.7,161.2,174.7,161.2z"/>
					<path class="st12" d="M170.2,162.9c0.8-1.6,2.8-2.4,4.4-1.7l0,0l0,0c1.7,0.7,2.6,2.6,2,4.3l-6.1,18.6l-4.6-1.9l-4.6-1.9
						L170.2,162.9z"/>
					<path class="st40" d="M160.9,184.6l7.7,3.1c1,0.4,2.2-0.1,2.7-1.1l0,0c0.4-1-0.1-2.2-1.1-2.7l-7.7-3.1c-1-0.4-2.2,0.1-2.7,1.1
						l0,0C159.3,183,159.8,184.2,160.9,184.6z"/>
					<path class="st8" d="M161.5,184.8l3.2,1.3l3.2,1.3c0,0,2.5,0.6-5.1,17.2c-5.6,12.4-20.2,43.4-28.5,59.9
						c-0.8,1.5-3.1,0.6-2.6-1.1c5.6-17.7,16.8-50,21.4-62.8C159.3,183.5,161.5,184.8,161.5,184.8z"/>
					<path class="st12" d="M144.2,244.4c-3.6,7.5-7.1,14.7-9.9,20.2c-0.8,1.5-3.1,0.6-2.6-1.1c1.9-5.9,4.4-13.5,7.1-21.4
						L144.2,244.4z"/>
					<path class="st41" d="M143.1,229.5L143.1,229.5c11.9-14.7,16.4-42.8,16.4-42.9c-1.3,1.9-3.4,5.9-6.3,14.2
						C150.9,207,147,217.9,143.1,229.5z"/>
				</g>
			</g>
			<g>
				<polygon class="st37" points="373.4,195 375.6,199.2 380.3,199.9 376.9,203.2 377.7,207.9 373.4,205.7 369.2,207.9 370,203.2 
					366.6,199.9 371.3,199.2 				"/>
				<polygon class="st36" points="434.1,189 437.1,195 443.7,195.9 438.9,200.6 440,207.1 434.1,204 428.3,207.1 429.4,200.6 
					424.6,195.9 431.2,195 				"/>
				<polygon class="st37" points="415.7,278.4 417.4,281.7 421,282.2 418.4,284.8 419,288.5 415.7,286.8 412.4,288.5 413.1,284.8 
					410.4,282.2 414.1,281.7 				"/>
				<polygon class="st36" points="357.1,255.8 360,261.8 366.6,262.7 361.9,267.4 363,273.9 357.1,270.8 351.2,273.9 352.3,267.4 
					347.6,262.7 354.2,261.8 				"/>
				<g>
					<g>
						
							<ellipse transform="matrix(0.9282 -0.3722 0.3722 0.9282 -60.2869 166.5638)" class="st7" cx="401.3" cy="239.4" rx="32.8" ry="32.8"/>
					</g>
					<g class="st42">
						<path class="st9" d="M392.5,271.1c11.6,3.2,23.5-0.2,31.6-8c-5.5,1.5-11.4,1.5-17.3-0.1c-17.5-4.9-27.7-23-22.8-40.4
							c1.6-5.9,4.8-10.9,8.9-14.8c-10.8,2.9-19.9,11.3-23.2,22.9C364.8,248.1,375,266.2,392.5,271.1z"/>
					</g>
					<path class="st16" d="M410.1,207.8c-1.6-0.5-3.3-0.8-4.9-1c-0.9,3.1-1.3,6.3-1.3,9.6c0,17.1,12,31.4,28,35
						c0.4-1,0.8-2.1,1.1-3.2C437.8,230.8,427.6,212.7,410.1,207.8z"/>
					<path class="st43" d="M368.6,236.7c-12.7-5-20.7-9.5-20-11.8c1.1-4,25.6-0.6,54.6,7.5c29.1,8.1,51.7,17.9,50.6,21.9
						c-0.7,2.4-9.7,2.1-23.1-0.2"/>
				</g>
			</g>
		</g>
	</g>
</g>
</svg>
