<?xml version="1.0" encoding="utf-8"?>
<!-- Generator: Adobe Illustrator 27.2.0, SVG Export Plug-In . SVG Version: 6.00 Build 0)  -->
<svg version="1.1" id="Layer_1" xmlns="http://www.w3.org/2000/svg" xmlns:xlink="http://www.w3.org/1999/xlink" x="0px" y="0px"
	 viewBox="0 0 1080 1080" style="enable-background:new 0 0 1080 1080;" xml:space="preserve">
<style type="text/css">
	.st0{fill:#00ACFF;}
	.st1{fill:#EDF4FF;}
	.st2{fill:#670037;}
	.st3{fill:url(#SVGID_1_);}
	.st4{fill:#FFFFFF;}
</style>
<path class="st0" d="M898.8,1080H181.2C81.1,1080,0,998.9,0,898.8V181.2C0,81.1,81.1,0,181.2,0h717.7c100,0,181.1,81.1,181.1,181.2
	v717.7C1080,998.9,998.9,1080,898.8,1080z"/>
<g>
	<path class="st1" d="M766,297.2H257.8v2.3c-0.1-0.8-0.1-1.6-0.1-2.3c0-45.4,113.8-82.2,254.1-82.2S766,251.9,766,297.2z"/>
	<ellipse class="st1" cx="511.9" cy="297.2" rx="254.1" ry="82.2"/>
	<ellipse class="st2" cx="511.9" cy="330.4" rx="254.1" ry="82.2"/>
	<linearGradient id="SVGID_1_" gradientUnits="userSpaceOnUse" x1="511.8537" y1="412.6126" x2="511.8537" y2="248.2252">
		<stop  offset="0" style="stop-color:#670037"/>
		<stop  offset="1" style="stop-color:#4A1337"/>
	</linearGradient>
	<ellipse class="st3" cx="511.9" cy="330.4" rx="254.1" ry="82.2"/>
	<path class="st4" d="M766,297.2v463.9c0,57.4-46.5,103.9-103.9,103.9H361.7c-57.4,0-103.9-46.5-103.9-103.9V299.6
		c3.8,44.3,116.1,79.9,254,79.9C652.2,379.4,766,342.6,766,297.2z"/>
	<path class="st4" d="M766,401.6c-99.2,0-179.6,80.4-179.6,179.6S666.8,760.7,766,760.7s179.6-80.4,179.6-179.6
		S865.2,401.6,766,401.6z M766,697.9c-64.5,0-116.9-52.3-116.9-116.9S701.4,464.2,766,464.2S882.8,516.5,882.8,581
		S830.5,697.9,766,697.9z"/>
</g>
</svg>
