<?xml version="1.0" encoding="utf-8"?>
<!-- Generator: Adobe Illustrator 27.2.0, SVG Export Plug-In . SVG Version: 6.00 Build 0)  -->
<svg version="1.1" id="Layer_1" xmlns="http://www.w3.org/2000/svg" xmlns:xlink="http://www.w3.org/1999/xlink" x="0px" y="0px"
	 viewBox="0 0 32 32" style="enable-background:new 0 0 32 32;" xml:space="preserve">
<style type="text/css">
	.st0{opacity:0.25;}
	.st1{fill:#FFFFFF;}
	.st2{opacity:0.75;}
</style>
<g class="st0">
	<path class="st1" d="M16,31C7.7,31,1,24.3,1,16C1,7.7,7.7,1,16,1c8.3,0,15,6.7,15,15C31,24.3,24.3,31,16,31z M16,5
		C9.9,5,5,9.9,5,16s4.9,11,11,11s11-4.9,11-11S22.1,5,16,5z"/>
</g>
<g class="st2">
	<path class="st1" d="M29,18c-1.1,0-2-0.9-2-2c0-6.1-4.9-11-11-11c-1.1,0-2-0.9-2-2s0.9-2,2-2c8.3,0,15,6.7,15,15
		C31,17.1,30.1,18,29,18z"/>
</g>
</svg>
